<svg xmlns="http://www.w3.org/2000/svg" xmlns:xlink="http://www.w3.org/1999/xlink" width="2571.185" height="1466.23" viewBox="0 0 2571.185 1466.23">
  <defs>
    <filter id="Union_2" x="1399.554" y="583.86" width="1171.63" height="688.327" filterUnits="userSpaceOnUse">
      <feOffset dy="3" input="SourceAlpha"/>
      <feGaussianBlur stdDeviation="3" result="blur"/>
      <feFlood flood-opacity="0.161"/>
      <feComposite operator="in" in2="blur"/>
      <feComposite in="SourceGraphic"/>
    </filter>
    <filter id="Union_1" x="1399.554" y="564.86" width="1171.63" height="688.327" filterUnits="userSpaceOnUse">
      <feOffset dy="3" input="SourceAlpha"/>
      <feGaussianBlur stdDeviation="3" result="blur-2"/>
      <feFlood flood-opacity="0.161"/>
      <feComposite operator="in" in2="blur-2"/>
      <feComposite in="SourceGraphic"/>
    </filter>
  </defs>
  <g id="Layer_2" data-name="Layer 2" transform="translate(128.088 901.253) rotate(-78)" opacity="0.9">
    <g id="Object" transform="translate(0.134 0.02)">
      <g transform="matrix(0.21, 0.98, -0.98, 0.21, 854.79, -312.69)" filter="url(#Union_2)">
        <path id="Union_2-2" data-name="Union 2" d="M-2603.4,2308.095a168.7,168.7,0,0,1,35-142.763,148.512,148.512,0,0,1-63.735-93.424,148.856,148.856,0,0,1,38.272-134.2,125.044,125.044,0,0,1-50.321-76.394,125.161,125.161,0,0,1,19.885-97.979,133.339,133.339,0,0,1-78.3-95.095,133.157,133.157,0,0,1,22.236-105.754,113.03,113.03,0,0,1-41.369-66.022,113.5,113.5,0,0,1,87.422-134.617,113.5,113.5,0,0,1,134.617,87.422,113.021,113.021,0,0,1-9.13,73.616,133.21,133.21,0,0,1,67.388,89.844,133.213,133.213,0,0,1-25.12,109.615,125.268,125.268,0,0,1,67.889,86.785,125.162,125.162,0,0,1-20.485,98.83,148.718,148.718,0,0,1,78.507,101.994,148.526,148.526,0,0,1-20.909,112.325,168.658,168.658,0,0,1,88.768,115.546,169,169,0,0,1-130.17,200.444,169.786,169.786,0,0,1-35.305,3.728A169.05,169.05,0,0,1-2603.4,2308.095Z" transform="translate(645.32 -1912.24) rotate(-78)" fill="rgba(203,177,153,0.11)"/>
      </g>
      <g transform="matrix(0.21, 0.98, -0.98, 0.21, 854.79, -312.69)" filter="url(#Union_1)">
        <path id="Union_1-2" data-name="Union 1" d="M-2603.4,2308.095a168.7,168.7,0,0,1,35-142.763,148.512,148.512,0,0,1-63.735-93.424,148.856,148.856,0,0,1,38.272-134.2,125.044,125.044,0,0,1-50.321-76.394,125.161,125.161,0,0,1,19.885-97.979,133.339,133.339,0,0,1-78.3-95.095,133.157,133.157,0,0,1,22.236-105.754,113.03,113.03,0,0,1-41.369-66.022,113.5,113.5,0,0,1,87.422-134.617,113.5,113.5,0,0,1,134.617,87.422,113.021,113.021,0,0,1-9.13,73.616,133.21,133.21,0,0,1,67.388,89.844,133.213,133.213,0,0,1-25.12,109.615,125.268,125.268,0,0,1,67.889,86.785,125.162,125.162,0,0,1-20.485,98.83,148.718,148.718,0,0,1,78.507,101.994,148.526,148.526,0,0,1-20.909,112.325,168.658,168.658,0,0,1,88.768,115.546,169,169,0,0,1-130.17,200.444,169.786,169.786,0,0,1-35.305,3.728A169.05,169.05,0,0,1-2603.4,2308.095Z" transform="translate(645.32 -1931.24) rotate(-78)" fill="#f1d2b5"/>
      </g>
      <path id="Path_1434" data-name="Path 1434" d="M1277.812,534.852a116.257,116.257,0,0,0-73.55-206.415h-14.574a155.574,155.574,0,0,0,4.406-35.928,151.507,151.507,0,0,0-151.507-150.829A149.473,149.473,0,0,0,973.1,158.628a293.523,293.523,0,0,0-536.882,35.589A186.417,186.417,0,0,0,127.786,336.233a182.005,182.005,0,0,0,0,23.726,116.937,116.937,0,0,0-19.32-1.695,114.562,114.562,0,0,0,0,228.785,109.818,109.818,0,0,0,38.3-6.779,116.935,116.935,0,0,0,116.6,96.937,115.579,115.579,0,0,0,78.973-30.844,198.28,198.28,0,0,0,331.145,79.99,116.935,116.935,0,0,0,189.468,19.32,198.28,198.28,0,0,0,340.974-126.086,58.3,58.3,0,1,0,73.889-84.735Z" transform="translate(-408.801 -44.154)" fill="#f5d1af"/>
      <path id="Path_1435" data-name="Path 1435" d="M1277.812,534.852a116.257,116.257,0,0,0-73.55-206.415h-14.574a155.574,155.574,0,0,0,4.406-35.928,151.507,151.507,0,0,0-151.507-150.829A149.473,149.473,0,0,0,973.1,158.628,293.626,293.626,0,0,0,699.709.3c-2.039.087-4.366.213-6.7.368-3.261.216-6.51.486-9.937.827A293.455,293.455,0,0,0,436.222,194.217,186.417,186.417,0,0,0,127.786,336.233a182.005,182.005,0,0,0,0,23.726,116.937,116.937,0,0,0-19.32-1.695,114.562,114.562,0,0,0,0,228.785,109.818,109.818,0,0,0,38.3-6.779,116.935,116.935,0,0,0,116.6,96.937,115.579,115.579,0,0,0,78.973-30.844,198.28,198.28,0,0,0,331.145,79.99,116.935,116.935,0,0,0,189.468,19.32,198.28,198.28,0,0,0,340.974-126.086,58.3,58.3,0,1,0,73.889-84.735Z" transform="translate(-411.362 -23.297)" fill="rgba(203,177,153,0.11)"/>
    </g>
  </g>
</svg>
