<svg id="Component_1_1" data-name="Component 1 – 1" xmlns="http://www.w3.org/2000/svg" width="1323.105" height="827.456" viewBox="0 0 1323.105 827.456">
  <path id="Path_1434" data-name="Path 1434" d="M1277.812,534.852a116.257,116.257,0,0,0-73.55-206.415h-14.574a155.574,155.574,0,0,0,4.406-35.928,151.507,151.507,0,0,0-151.507-150.829A149.473,149.473,0,0,0,973.1,158.628a293.523,293.523,0,0,0-536.882,35.589A186.417,186.417,0,0,0,127.786,336.233a182.005,182.005,0,0,0,0,23.726,116.937,116.937,0,0,0-19.32-1.695,114.562,114.562,0,0,0,0,228.785,109.818,109.818,0,0,0,38.3-6.779,116.935,116.935,0,0,0,116.6,96.937,115.579,115.579,0,0,0,78.973-30.844,198.28,198.28,0,0,0,331.145,79.99,116.935,116.935,0,0,0,189.468,19.32,198.28,198.28,0,0,0,340.974-126.086,58.3,58.3,0,1,0,73.889-84.735Z" transform="translate(2.427 -0.021)" fill="#f5d1af"/>
  <path id="Path_1435" data-name="Path 1435" d="M1277.812,534.852a116.257,116.257,0,0,0-73.55-206.415h-14.574a155.574,155.574,0,0,0,4.406-35.928,151.507,151.507,0,0,0-151.507-150.829A149.473,149.473,0,0,0,973.1,158.628,293.626,293.626,0,0,0,699.709.3c-2.039.087-4.366.213-6.7.368-3.261.216-6.51.486-9.937.827A293.455,293.455,0,0,0,436.222,194.217,186.417,186.417,0,0,0,127.786,336.233a182.005,182.005,0,0,0,0,23.726,116.937,116.937,0,0,0-19.32-1.695,114.562,114.562,0,0,0,0,228.785,109.818,109.818,0,0,0,38.3-6.779,116.935,116.935,0,0,0,116.6,96.937,115.579,115.579,0,0,0,78.973-30.844,198.28,198.28,0,0,0,331.145,79.99,116.935,116.935,0,0,0,189.468,19.32,198.28,198.28,0,0,0,340.974-126.086,58.3,58.3,0,1,0,73.889-84.735Z" transform="translate(-0.134 20.836)" fill="rgba(203,177,153,0.11)"/>
</svg>
