<svg xmlns="http://www.w3.org/2000/svg" xmlns:xlink="http://www.w3.org/1999/xlink" width="491.763" height="1104.602" viewBox="0 0 491.763 1104.602">
  <defs>
    <filter id="Union_2" x="0" y="3.95" width="473.178" height="1100.652" filterUnits="userSpaceOnUse">
      <feOffset dy="3" input="SourceAlpha"/>
      <feGaussianBlur stdDeviation="3" result="blur"/>
      <feFlood flood-opacity="0.161"/>
      <feComposite operator="in" in2="blur"/>
      <feComposite in="SourceGraphic"/>
    </filter>
    <filter id="Union_1" x="18.585" y="0" width="473.178" height="1100.652" filterUnits="userSpaceOnUse">
      <feOffset dy="3" input="SourceAlpha"/>
      <feGaussianBlur stdDeviation="3" result="blur-2"/>
      <feFlood flood-opacity="0.161"/>
      <feComposite operator="in" in2="blur-2"/>
      <feComposite in="SourceGraphic"/>
    </filter>
  </defs>
  <g id="Component_2_1" data-name="Component 2 – 1" transform="translate(9 6)">
    <g transform="matrix(1, 0, 0, 1, -9, -6)" filter="url(#Union_2)">
      <path id="Union_2-2" data-name="Union 2" d="M-2603.4,2308.095a168.7,168.7,0,0,1,35-142.763,148.512,148.512,0,0,1-63.735-93.424,148.856,148.856,0,0,1,38.272-134.2,125.044,125.044,0,0,1-50.321-76.394,125.161,125.161,0,0,1,19.885-97.979,133.339,133.339,0,0,1-78.3-95.095,133.157,133.157,0,0,1,22.236-105.754,113.03,113.03,0,0,1-41.369-66.022,113.5,113.5,0,0,1,87.422-134.617,113.5,113.5,0,0,1,134.617,87.422,113.021,113.021,0,0,1-9.13,73.616,133.21,133.21,0,0,1,67.388,89.844,133.213,133.213,0,0,1-25.12,109.615,125.268,125.268,0,0,1,67.889,86.785,125.162,125.162,0,0,1-20.485,98.83,148.718,148.718,0,0,1,78.507,101.994,148.526,148.526,0,0,1-20.909,112.325,168.658,168.658,0,0,1,88.768,115.546,169,169,0,0,1-130.17,200.444,169.786,169.786,0,0,1-35.305,3.728A169.05,169.05,0,0,1-2603.4,2308.095Z" transform="translate(2733.24 -1349.39)" fill="rgba(203,177,153,0.11)"/>
    </g>
    <g transform="matrix(1, 0, 0, 1, -9, -6)" filter="url(#Union_1)">
      <path id="Union_1-2" data-name="Union 1" d="M-2603.4,2308.095a168.7,168.7,0,0,1,35-142.763,148.512,148.512,0,0,1-63.735-93.424,148.856,148.856,0,0,1,38.272-134.2,125.044,125.044,0,0,1-50.321-76.394,125.161,125.161,0,0,1,19.885-97.979,133.339,133.339,0,0,1-78.3-95.095,133.157,133.157,0,0,1,22.236-105.754,113.03,113.03,0,0,1-41.369-66.022,113.5,113.5,0,0,1,87.422-134.617,113.5,113.5,0,0,1,134.617,87.422,113.021,113.021,0,0,1-9.13,73.616,133.21,133.21,0,0,1,67.388,89.844,133.213,133.213,0,0,1-25.12,109.615,125.268,125.268,0,0,1,67.889,86.785,125.162,125.162,0,0,1-20.485,98.83,148.718,148.718,0,0,1,78.507,101.994,148.526,148.526,0,0,1-20.909,112.325,168.658,168.658,0,0,1,88.768,115.546,169,169,0,0,1-130.17,200.444,169.786,169.786,0,0,1-35.305,3.728A169.05,169.05,0,0,1-2603.4,2308.095Z" transform="translate(2751.82 -1353.34)" fill="#f1d2b5"/>
    </g>
  </g>
</svg>
